<svg xmlns="http://www.w3.org/2000/svg" width="536.635" height="173.938" viewBox="0 0 536.635 173.938">
  <g id="Grupo_11" data-name="Grupo 11" transform="translate(-37 -31.17)">
    <path id="Sustracción_2" data-name="Sustracción 2" d="M507.645,173.941H28.989A28.974,28.974,0,0,1,0,144.951V28.992A28.964,28.964,0,0,1,28.989,0H507.645a28.974,28.974,0,0,1,28.99,28.99V144.951a32.021,32.021,0,0,1-.764,6.64,25.007,25.007,0,0,1-3.362,8.616,28.368,28.368,0,0,1-6.277,7.113,29.549,29.549,0,0,1-8.515,4.836A29.236,29.236,0,0,1,507.645,173.941ZM195.683,137.705a7.27,7.27,0,1,0,5.119,2.129A7.194,7.194,0,0,0,195.683,137.705ZM54.356,101.467H79.724L66.812,140.2a3.625,3.625,0,0,0,3.443,4.754H84.342a10.782,10.782,0,0,0,9.379-5.391l22.238-38.093h21.246a28.167,28.167,0,0,0,19.389-8.019,9.174,9.174,0,0,0,0-12.955c-5.2-5.2-12.632-8.424-19.389-8.424H115.959L93.721,34.38a12.218,12.218,0,0,0-3.959-4.155,10.094,10.094,0,0,0-5.42-1.641H70.255A3.493,3.493,0,0,0,67.437,30.1a4.141,4.141,0,0,0-.625,3.648L79.724,72.069l-25.367.408-8.7-11.6a7.319,7.319,0,0,0-5.8-2.9H33.633a3.607,3.607,0,0,0-2.863,1.4,3.567,3.567,0,0,0-.654,3.085L35.8,85.2a7.306,7.306,0,0,1,0,3.533l-5.682,22.739a3.567,3.567,0,0,0,.654,3.085,3.607,3.607,0,0,0,2.863,1.4h6.229a7.319,7.319,0,0,0,5.8-2.9l8.7-11.595ZM369.519,33.648a30.183,30.183,0,0,0-13.367,2.764,26.852,26.852,0,0,0-9.394,7.577,40.236,40.236,0,0,0-6.016,10.86,61.276,61.276,0,0,0-3.187,12.714,94.3,94.3,0,0,0-.942,13.169A89.587,89.587,0,0,0,338.2,97.51a52.756,52.756,0,0,0,5.3,15.184,29.781,29.781,0,0,0,10.08,10.989,24.383,24.383,0,0,0,7.169,3.1,35.067,35.067,0,0,0,8.764,1.032,30.164,30.164,0,0,0,13.363-2.764,27.173,27.173,0,0,0,9.429-7.577,39.685,39.685,0,0,0,6.046-10.86A62.561,62.561,0,0,0,401.578,93.9a91.25,91.25,0,0,0,.974-13.169,89.921,89.921,0,0,0-1.592-16.844A52.226,52.226,0,0,0,395.627,48.7a29.764,29.764,0,0,0-10.111-10.955,24.471,24.471,0,0,0-7.187-3.074A35.642,35.642,0,0,0,369.519,33.648Zm88.83,1.56L414.78,96.858v9.626h43.568v19.769h15.089V106.484h11.576V92.307H473.438v-57.1H458.349Zm-160.234,0L254.543,96.858v9.626h43.571v19.769H313.2V106.484h11.576V92.307H313.2v-57.1H298.114Zm-102.432,73.5a7.273,7.273,0,1,0,5.119,2.13A7.192,7.192,0,0,0,195.683,108.712Zm0-28.99a7.271,7.271,0,1,0,5.119,2.129A7.193,7.193,0,0,0,195.683,79.723Zm0-28.99a7.271,7.271,0,1,0,5.119,2.129A7.194,7.194,0,0,0,195.683,50.733Zm0-28.99a7.271,7.271,0,1,0,5.119,2.129A7.193,7.193,0,0,0,195.683,21.743Zm173.836,91.5a13.08,13.08,0,0,1-8.52-2.764,18.769,18.769,0,0,1-5.332-7.447,42.666,42.666,0,0,1-2.764-10.47,85.007,85.007,0,0,1-.813-11.836,82.885,82.885,0,0,1,.813-11.608,44.772,44.772,0,0,1,2.729-10.5,18.81,18.81,0,0,1,5.332-7.574,14.319,14.319,0,0,1,17.009-.065,18.728,18.728,0,0,1,5.329,7.444,43.741,43.741,0,0,1,2.8,10.47,82.405,82.405,0,0,1,.844,11.836,83.338,83.338,0,0,1-.811,11.608,44.863,44.863,0,0,1-2.732,10.5,18.969,18.969,0,0,1-5.3,7.574A12.975,12.975,0,0,1,369.519,113.247Zm0-41.621a8.944,8.944,0,0,0-9.106,9.1,9.084,9.084,0,0,0,2.6,6.569,8.749,8.749,0,0,0,6.5,2.665,9.107,9.107,0,0,0,9.233-9.234,8.776,8.776,0,0,0-2.668-6.47A9.02,9.02,0,0,0,369.519,71.627Zm88.83,20.681h-23.54L458.349,56.8Zm-160.234,0H274.571L298.114,56.8Z" transform="translate(37 31.168)" fill="#8bc34a"/>
  </g>
</svg>
