<svg xmlns="http://www.w3.org/2000/svg" width="36" height="32" viewBox="0 0 36 32">
  <path id="plane-solid" d="M30.144,12C32.281,12,36,13.813,36,16c0,2.25-3.719,4-5.856,4H22.856L16.575,30.994A2.008,2.008,0,0,1,14.837,32H11.325a1,1,0,0,1-.962-1.275L13.431,20H7L4.3,23.6a1,1,0,0,1-.8.4H.877A.891.891,0,0,1,0,23.069a.951.951,0,0,1,.034-.187L2,16,.034,9.119A.915.915,0,0,1,0,8.875.877.877,0,0,1,.877,8H3.5a1,1,0,0,1,.8.4L7,12h6.431L10.363,1.275A1,1,0,0,1,11.325,0h3.512a2,2,0,0,1,1.738,1.008L22.856,12Z" fill="#757575"/>
</svg>
