<svg xmlns="http://www.w3.org/2000/svg" width="32" height="32" viewBox="0 0 32 32">
  <path id="hotel-solid" d="M30,0a2,2,0,0,1,0,4V28a2,2,0,0,1,0,4H19V28H13v4H2a2,2,0,0,1,0-4V4A2,2,0,0,1,2,0ZM7,6A1,1,0,0,0,6,7V9a1,1,0,0,0,1,1H9a1,1,0,0,0,1-1V7A1,1,0,0,0,9,6Zm7,3a1,1,0,0,0,1,1h2a1,1,0,0,0,1-1V7a1,1,0,0,0-1-1H15a1,1,0,0,0-1,1Zm9-3a1,1,0,0,0-1,1V9a1,1,0,0,0,1,1h2a1,1,0,0,0,1-1V7a1,1,0,0,0-1-1ZM6,15a1,1,0,0,0,1,1H9a1,1,0,0,0,1-1V13a1,1,0,0,0-1-1H7a1,1,0,0,0-1,1Zm9-3a1,1,0,0,0-1,1v2a1,1,0,0,0,1,1h2a1,1,0,0,0,1-1V13a1,1,0,0,0-1-1Zm7,3a1,1,0,0,0,1,1h2a1,1,0,0,0,1-1V13a1,1,0,0,0-1-1H23a1,1,0,0,0-1,1Zm-6,3a6.112,6.112,0,0,0-5.869,4.513A1.311,1.311,0,0,0,11.5,24h9a1.246,1.246,0,0,0,1.313-1.487A6,6,0,0,0,16,18Z" fill="#757575"/>
</svg>
