<svg xmlns="http://www.w3.org/2000/svg" width="517.496" height="126.002" viewBox="0 0 517.496 126.002">
  <path id="Sustracción_1" data-name="Sustracción 1" d="M496.5,126H21A21.025,21.025,0,0,1,0,105V21A21.023,21.023,0,0,1,21,0H496.5a21.024,21.024,0,0,1,21,21v84A21.026,21.026,0,0,1,496.5,126ZM141.751,99.749A5.251,5.251,0,1,0,147,105,5.256,5.256,0,0,0,141.751,99.749ZM39.374,73.5H57.75L48.4,101.555a2.626,2.626,0,0,0,2.5,3.443H61.1a7.769,7.769,0,0,0,6.79-3.9L84,73.5H99.39a20.265,20.265,0,0,0,14.043-5.807,6.63,6.63,0,0,0,0-9.385A20.725,20.725,0,0,0,99.39,52.2H84L67.888,24.9a8.041,8.041,0,0,0-6.79-4.2h-10.2a2.527,2.527,0,0,0-2.044,1.1,2.99,2.99,0,0,0-.451,2.638L57.75,52.2l-18.376.3-6.3-8.4a5.293,5.293,0,0,0-4.2-2.1H24.361a2.61,2.61,0,0,0-2.071,1.013,2.582,2.582,0,0,0-.477,2.235l4.117,16.474a5.327,5.327,0,0,1,0,2.56L21.813,80.75a2.583,2.583,0,0,0,.477,2.235A2.61,2.61,0,0,0,24.361,84h4.515a5.292,5.292,0,0,0,4.2-2.1l6.3-8.4ZM420.839,40.783a23.651,23.651,0,0,0-12.178,3.042,20.519,20.519,0,0,0-7.984,8.665,29.809,29.809,0,0,0-2.828,13.451,30.232,30.232,0,0,0,2.759,13.306,20.663,20.663,0,0,0,7.911,8.811,23.394,23.394,0,0,0,12.32,3.133,22.718,22.718,0,0,0,9.915-2.074,23.845,23.845,0,0,0,7.327-5.371l-6.5-6.879a14.649,14.649,0,0,1-4.85,3.581,14.427,14.427,0,0,1-5.8,1.132,11.075,11.075,0,0,1-9.3-4.358,16.112,16.112,0,0,1-2.953-7.043h32.7a28.943,28.943,0,0,0,.328-3.581c.031-1.152.046-2.167.046-3.015,0-5.189-.941-9.515-2.8-12.858a18.107,18.107,0,0,0-7.56-7.491A22.833,22.833,0,0,0,420.839,40.783ZM301.466,59.25a25.766,25.766,0,0,0-9.162,1.672,16.807,16.807,0,0,0-7.23,5.184,14.063,14.063,0,0,0-2.827,9.067,15.809,15.809,0,0,0,2.356,8.88,14.652,14.652,0,0,0,6.386,5.348,22.192,22.192,0,0,0,9.067,1.791,18.5,18.5,0,0,0,13.378-4.9v3.768h10.552V58.875a22.085,22.085,0,0,0-1.741-9.492,13.269,13.269,0,0,0-4.6-5.467,17.168,17.168,0,0,0-6.22-2.494,35.423,35.423,0,0,0-6.569-.639,34.91,34.91,0,0,0-10.931,1.676,38.7,38.7,0,0,0-8.573,3.883l3.3,8.857a30.74,30.74,0,0,1,7.326-3.577,24.894,24.894,0,0,1,7.935-1.32,14.392,14.392,0,0,1,5.115.822,6.394,6.394,0,0,1,3.274,2.732,10.091,10.091,0,0,1,1.129,5.111v2.827a23.4,23.4,0,0,0-5.418-1.905A30.546,30.546,0,0,0,301.466,59.25ZM458.338,80.544v9.515h38.908V80.544H483.209V22.036h-27.04l5,9.515h11.21V80.544Zm-120.6-38.629h0l18.75,48.143H367.04l18.75-48.143H374.3L363.275,72.441c-.273.717-.527,1.472-.78,2.307a24.009,24.009,0,0,0-.635,2.877c-.206-1.065-.425-2.033-.658-2.877-.234-.828-.481-1.582-.758-2.307L349.33,41.915H337.738ZM221.478,80.544v9.515h34.484V80.544H242.487V65a16.462,16.462,0,0,1,1.65-7.586,11.06,11.06,0,0,1,5.275-4.924,22.645,22.645,0,0,1,9.563-1.718V61.136h10.552V43.327a22.784,22.784,0,0,0-4.617-1.764,23.875,23.875,0,0,0-6.408-.781,22.814,22.814,0,0,0-7.984,1.343,17.237,17.237,0,0,0-6.03,3.7,12.8,12.8,0,0,0-2.754,3.826V41.915H221.478V51.43h10.176V80.544Zm-58.6-56.434V34.849H182v55.21h11.21V34.849h19.221V24.11ZM141.751,78.75A5.251,5.251,0,1,0,147,84,5.256,5.256,0,0,0,141.751,78.75Zm0-21A5.249,5.249,0,1,0,147,63,5.256,5.256,0,0,0,141.751,57.75Zm0-21A5.249,5.249,0,1,0,147,42,5.256,5.256,0,0,0,141.751,36.75Zm0-21A5.249,5.249,0,1,0,147,21,5.256,5.256,0,0,0,141.751,15.751ZM302.032,81.672a11.406,11.406,0,0,1-6.875-1.813,5.61,5.61,0,0,1-2.452-4.687,5.344,5.344,0,0,1,3.156-5.111,16.2,16.2,0,0,1,7.3-1.576,26.042,26.042,0,0,1,5.628.589,20.154,20.154,0,0,1,4.641,1.576v6.217a18.114,18.114,0,0,1-4.641,3.348A14.576,14.576,0,0,1,302.032,81.672ZM431.106,60.948H408.7a15.9,15.9,0,0,1,2.559-6.5c1.954-2.749,5.178-4.143,9.585-4.143a10.435,10.435,0,0,1,4.712,1.106,9.456,9.456,0,0,1,3.719,3.462,13.373,13.373,0,0,1,1.837,6.076Z" transform="translate(0 0)" fill="#fff"/>
</svg>
