<svg xmlns="http://www.w3.org/2000/svg" width="164.78" height="43.444" viewBox="0 0 164.78 43.444">
  <g id="Grupo_1" data-name="Grupo 1" transform="translate(-37 -27.845)">
    <path id="ticket-airline-solid" d="M158.093,64a6.69,6.69,0,0,1,6.687,6.687V97.434a6.693,6.693,0,0,1-6.687,6.687H6.687A6.69,6.69,0,0,1,0,97.434V70.687A6.686,6.686,0,0,1,6.687,64ZM45.136,72.359a1.672,1.672,0,1,0-1.672-1.672A1.677,1.677,0,0,0,45.136,72.359Zm0,6.687a1.672,1.672,0,1,0-1.672-1.672A1.677,1.677,0,0,0,45.136,79.045Zm0,3.343a1.672,1.672,0,1,0,1.672,1.672A1.677,1.677,0,0,0,45.136,82.389Zm0,10.03a1.672,1.672,0,1,0-1.672-1.672A1.677,1.677,0,0,0,45.136,92.419Zm0,3.343a1.672,1.672,0,1,0,1.672,1.672A1.677,1.677,0,0,0,45.136,95.762Zm-32.6-15.045-2.006-2.675a1.68,1.68,0,0,0-1.337-.669H7.758a.835.835,0,0,0-.812,1.034l1.311,5.245a1.68,1.68,0,0,1,0,.815L6.946,89.713a.835.835,0,0,0,.812,1.034H9.194a1.679,1.679,0,0,0,1.337-.669L12.538,87.4h5.851l-2.978,8.933a.836.836,0,0,0,.794,1.1h3.249a2.488,2.488,0,0,0,2.163-1.243l5.13-8.787h4.9a6.494,6.494,0,0,0,4.472-1.849,2.113,2.113,0,0,0,0-2.988,6.6,6.6,0,0,0-4.472-1.943h-4.9l-5.13-8.693a2.579,2.579,0,0,0-2.163-1.337H16.205a.91.91,0,0,0-.794,1.191l2.978,8.839Z" transform="translate(37 -32.832)" fill="#8bc34a"/>
    <text id="Travel" transform="translate(87.513 59.845)" fill="#fff" font-size="30" font-family="SegoeUI-Bold, Segoe UI" font-weight="700"><tspan x="0" y="0">Travel</tspan></text>
  </g>
</svg>
