<svg xmlns="http://www.w3.org/2000/svg" width="32.092" height="29.154" viewBox="0 0 32.092 29.154">
  <path id="star-solid" d="M45.8,8.52l8.732,1.207a1.912,1.912,0,0,1,1.562,1.23,1.749,1.749,0,0,1-.48,1.867l-6.332,5.819,1.495,8.347a1.766,1.766,0,0,1-.784,1.782,2.059,2.059,0,0,1-2.048.131l-7.8-3.9-7.8,3.9a2.069,2.069,0,0,1-2.054-.131,1.762,1.762,0,0,1-.778-1.782L31,18.644l-6.333-5.819a1.75,1.75,0,0,1-.479-1.867,1.9,1.9,0,0,1,1.564-1.23L34.48,8.52,38.394.986a2,2,0,0,1,3.494,0Z" transform="translate(-24.095 0.039)" fill="#8bc34a"/>
</svg>
